<?xml version="1.0" encoding="UTF-8"?>
<svg version="1.1" xmlns="http://www.w3.org/2000/svg" width="512" height="512">
<path d="M0 0 C14.52 0 29.04 0 44 0 C44 7.26 44 14.52 44 22 C51.26 22 58.52 22 66 22 C66 29.26 66 36.52 66 44 C128.7 44 191.4 44 256 44 C256 36.74 256 29.48 256 22 C263.26 22 270.52 22 278 22 C278 14.74 278 7.48 278 0 C306.38 0 334.76 0 364 0 C364 49.5 364 99 364 150 C371.26 150 378.52 150 386 150 C386 163.86 386 177.72 386 192 C393.26 192 400.52 192 408 192 C408 199.59 408 207.18 408 215 C329.46 215 250.92 215 170 215 C170 208.07 170 201.14 170 194 C135.68 194 101.36 194 66 194 C66 200.93 66 207.86 66 215 C58.08 215 50.16 215 42 215 C42 208.07 42 201.14 42 194 C35.4 194 28.8 194 22 194 C22 187.4 22 180.8 22 174 C14.74 174 7.48 174 0 174 C0 152.88 0 131.76 0 110 C-7.26 110 -14.52 110 -22 110 C-22 80.96 -22 51.92 -22 22 C-14.74 22 -7.48 22 0 22 C0 14.74 0 7.48 0 0 Z " fill="#191930" transform="translate(63,297)"/>
<path d="M0 0 C14.52 0 29.04 0 44 0 C44 6.93 44 13.86 44 21 C51.26 21 58.52 21 66 21 C66 27.6 66 34.2 66 41 C72.6 41 79.2 41 86 41 C86 48.26 86 55.52 86 63 C93.26 63 100.52 63 108 63 C108 119.76 108 176.52 108 235 C100.74 235 93.48 235 86 235 C86 242.26 86 249.52 86 257 C79.4 257 72.8 257 66 257 C66 264.26 66 271.52 66 279 C58.74 279 51.48 279 44 279 C44 285.6 44 292.2 44 299 C29.48 299 14.96 299 0 299 C0 292.4 0 285.8 0 279 C-7.26 279 -14.52 279 -22 279 C-22 271.74 -22 264.48 -22 257 C-29.26 257 -36.52 257 -44 257 C-44 249.74 -44 242.48 -44 235 C-50.6 235 -57.2 235 -64 235 C-64 178.24 -64 121.48 -64 63 C-57.4 63 -50.8 63 -44 63 C-44 55.74 -44 48.48 -44 41 C-36.74 41 -29.48 41 -22 41 C-22 34.4 -22 27.8 -22 21 C-14.74 21 -7.48 21 0 21 C0 14.07 0 7.14 0 0 Z " fill="#D97171" transform="translate(213,0)"/>
<path d="M0 0 C28.38 0 56.76 0 86 0 C86 49.5 86 99 86 150 C93.26 150 100.52 150 108 150 C108 163.86 108 177.72 108 192 C115.26 192 122.52 192 130 192 C130 199.59 130 207.18 130 215 C51.46 215 -27.08 215 -108 215 C-108 208.07 -108 201.14 -108 194 C-142.32 194 -176.64 194 -212 194 C-212 187.4 -212 180.8 -212 174 C-194.21182344 173.06841302 -176.48467561 172.87377849 -158.67987061 172.93133545 C-155.09192519 172.94178146 -151.50397204 172.9461774 -147.91601562 172.95117188 C-140.94399064 172.96172385 -133.97200316 172.97922812 -127 173 C-127 166.07 -127 159.14 -127 152 C-105.88 151.67 -84.76 151.34 -63 151 C-62.67 144.07 -62.34 137.14 -62 130 C-55.73 129.67 -49.46 129.34 -43 129 C-42.67 122.73 -42.34 116.46 -42 110 C-31.605 109.505 -31.605 109.505 -21 109 C-20.67 102.07 -20.34 95.14 -20 88 C0.79 87.67 21.58 87.34 43 87 C43.33 80.07 43.66 73.14 44 66 C54.395 65.505 54.395 65.505 65 65 C65.33 50.81 65.66 36.62 66 22 C44.22 22 22.44 22 0 22 C0 14.74 0 7.48 0 0 Z " fill="#0F0700" transform="translate(341,297)"/>
<path d="M0 0 C14.52 0 29.04 0 44 0 C44 6.93 44 13.86 44 21 C51.26 21 58.52 21 66 21 C66 27.6 66 34.2 66 41 C72.6 41 79.2 41 86 41 C86 48.26 86 55.52 86 63 C93.26 63 100.52 63 108 63 C108 119.76 108 176.52 108 235 C100.74 235 93.48 235 86 235 C86 242.26 86 249.52 86 257 C79.4 257 72.8 257 66 257 C66 264.26 66 271.52 66 279 C58.74 279 51.48 279 44 279 C44 285.6 44 292.2 44 299 C29.48 299 14.96 299 0 299 C0 292.4 0 285.8 0 279 C-7.26 279 -14.52 279 -22 279 C-22 271.74 -22 264.48 -22 257 C-29.26 257 -36.52 257 -44 257 C-44 249.74 -44 242.48 -44 235 C-36.41 235 -28.82 235 -21 235 C-21 241.93 -21 248.86 -21 256 C-7.14 256 6.72 256 21 256 C21 242.14 21 228.28 21 214 C28.26 214 35.52 214 43 214 C43 171.76 43 129.52 43 86 C29.14 86 15.28 86 1 86 C1 78.74 1 71.48 1 64 C15.19 64 29.38 64 44 64 C44 70.93 44 77.86 44 85 C50.6 85 57.2 85 64 85 C64 71.14 64 57.28 64 43 C49.81 43 35.62 43 21 43 C21 35.74 21 28.48 21 21 C14.07 21 7.14 21 0 21 C0 14.07 0 7.14 0 0 Z " fill="#AF2828" transform="translate(213,0)"/>
<path d="M0 0 C14.52 0 29.04 0 44 0 C44 7.26 44 14.52 44 22 C51.26 22 58.52 22 66 22 C66 43.45 66 64.9 66 87 C79.53 87 93.06 87 107 87 C107 108.12 107 129.24 107 151 C100.73 151 94.46 151 88 151 C88.01160156 152.57652344 88.02320313 154.15304687 88.03515625 155.77734375 C88.04453243 157.83072799 88.05363282 159.8841135 88.0625 161.9375 C88.07087891 162.97841797 88.07925781 164.01933594 88.08789062 165.09179688 C88.09111328 166.08115234 88.09433594 167.07050781 88.09765625 168.08984375 C88.10289307 169.00628662 88.10812988 169.92272949 88.11352539 170.86694336 C88 173 88 173 87 174 C85.43827255 174.08685603 83.87270656 174.10702219 82.30859375 174.09765625 C81.45837646 174.09515869 80.60815918 174.09266113 79.73217773 174.09008789 C78.64493408 174.08098389 77.55769043 174.07187988 76.4375 174.0625 C72.993125 174.041875 69.54875 174.02125 66 174 C66 187.53 66 201.06 66 215 C58.08 215 50.16 215 42 215 C42 208.07 42 201.14 42 194 C35.4 194 28.8 194 22 194 C22 187.4 22 180.8 22 174 C14.74 174 7.48 174 0 174 C0 152.88 0 131.76 0 110 C-7.26 110 -14.52 110 -22 110 C-22 80.96 -22 51.92 -22 22 C-14.74 22 -7.48 22 0 22 C0 14.74 0 7.48 0 0 Z " fill="#404058" transform="translate(63,297)"/>
<path d="M0 0 C29.04 0 58.08 0 88 0 C88 14.19 88 28.38 88 43 C87 44 87 44 84.95874023 44.11352539 C83.64691772 44.10567017 83.64691772 44.10567017 82.30859375 44.09765625 C81.36435547 44.09443359 80.42011719 44.09121094 79.44726562 44.08789062 C78.45404297 44.07951172 77.46082031 44.07113281 76.4375 44.0625 C75.44041016 44.05798828 74.44332031 44.05347656 73.41601562 44.04882812 C70.94395151 44.03700007 68.47200482 44.02051849 66 44 C66.00523682 44.63091553 66.01047363 45.26183105 66.01586914 45.91186523 C66.03657826 48.75373347 66.04964066 51.59558588 66.0625 54.4375 C66.07087891 55.43072266 66.07925781 56.42394531 66.08789062 57.44726562 C66.09111328 58.39150391 66.09433594 59.33574219 66.09765625 60.30859375 C66.10289307 61.18314209 66.10812988 62.05769043 66.11352539 62.95874023 C66 65 66 65 65 66 C63.03630847 66.0940067 61.06920801 66.11743381 59.10327148 66.11352539 C57.84203964 66.11344986 56.5808078 66.11337433 55.28135681 66.11329651 C53.89460206 66.1081891 52.50784771 66.10297309 51.12109375 66.09765625 C49.71004791 66.09579201 48.29900143 66.09436814 46.88795471 66.09336853 C43.16759465 66.08954379 39.4472734 66.0797139 35.72692871 66.06866455 C31.93319219 66.05844948 28.13944942 66.05387071 24.34570312 66.04882812 C16.89711769 66.03809158 9.44856428 66.0210157 2 66 C2.00523682 66.63091553 2.01047363 67.26183105 2.01586914 67.91186523 C2.03657826 70.75373347 2.04964066 73.59558588 2.0625 76.4375 C2.07087891 77.43072266 2.07925781 78.42394531 2.08789062 79.44726562 C2.09111328 80.39150391 2.09433594 81.33574219 2.09765625 82.30859375 C2.10289307 83.18314209 2.10812988 84.05769043 2.11352539 84.95874023 C2 87 2 87 1 88 C-0.56172745 88.08685603 -2.12729344 88.10702219 -3.69140625 88.09765625 C-4.63564453 88.09443359 -5.57988281 88.09121094 -6.55273438 88.08789062 C-7.54595703 88.07951172 -8.53917969 88.07113281 -9.5625 88.0625 C-10.55958984 88.05798828 -11.55667969 88.05347656 -12.58398438 88.04882812 C-15.05604849 88.03700007 -17.52799518 88.02051849 -20 88 C-19.99476318 88.57032959 -19.98952637 89.14065918 -19.98413086 89.72827148 C-19.96341779 92.29800323 -19.9503581 94.86771747 -19.9375 97.4375 C-19.92912109 98.33533203 -19.92074219 99.23316406 -19.91210938 100.15820312 C-19.90888672 101.01220703 -19.90566406 101.86621094 -19.90234375 102.74609375 C-19.89710693 103.53685303 -19.89187012 104.3276123 -19.88647461 105.14233398 C-20 107 -20 107 -21 108 C-22.41570123 108.08651611 -23.835595 108.10704904 -25.25390625 108.09765625 C-26.0229126 108.09515869 -26.79191895 108.09266113 -27.58422852 108.09008789 C-28.56705811 108.08098389 -29.5498877 108.07187988 -30.5625 108.0625 C-33.676875 108.041875 -36.79125 108.02125 -40 108 C-40 114.93 -40 121.86 -40 129 C-55.18 129 -70.36 129 -86 129 C-86.020625 122.090625 -86.04125 115.18125 -86.0625 108.0625 C-86.07615601 104.78711304 -86.07615601 104.78711304 -86.09008789 101.44555664 C-86.09300698 99.7254238 -86.09555555 98.00529028 -86.09765625 96.28515625 C-86.10277222 95.38341675 -86.10788818 94.48167725 -86.11315918 93.5526123 C-86.11346882 91.36808255 -86.0624587 89.1836367 -86 87 C-85 86 -85 86 -83.24729919 85.87974548 C-82.10479454 85.8830764 -82.10479454 85.8830764 -80.93920898 85.88647461 C-80.07839218 85.88655014 -79.21757538 85.88662567 -78.33067322 85.88670349 C-77.39526199 85.89186478 -76.45985077 85.89702606 -75.49609375 85.90234375 C-74.54307877 85.9037587 -73.59006378 85.90517365 -72.60816956 85.90663147 C-69.55124835 85.91224848 -66.49439923 85.92480384 -63.4375 85.9375 C-61.37044376 85.94251281 -59.30338638 85.94707609 -57.23632812 85.95117188 C-52.15750167 85.96137442 -47.07883194 85.98094644 -42 86 C-42 79.4 -42 72.8 -42 66 C-44.85483032 66.00785522 -44.85483032 66.00785522 -47.76733398 66.01586914 C-54.04179524 66.03196671 -60.31625162 66.04347225 -66.59072781 66.05181217 C-70.39651577 66.0570402 -74.20228148 66.06413638 -78.00805664 66.07543945 C-81.67792544 66.0862712 -85.34777278 66.09227744 -89.01765633 66.09487724 C-90.42074992 66.09673097 -91.82384229 66.1003506 -93.2269268 66.10573006 C-95.1856968 66.11294419 -97.1444882 66.11340809 -99.10327148 66.11352539 C-100.22023911 66.115746 -101.33720673 66.11796661 -102.48802185 66.12025452 C-105 66 -105 66 -106 65 C-106.0991657 63.37742456 -106.13079777 61.75060169 -106.1328125 60.125 C-106.13410156 59.14015625 -106.13539063 58.1553125 -106.13671875 57.140625 C-106.13285156 56.10421875 -106.12898437 55.0678125 -106.125 54 C-106.13080078 52.44539063 -106.13080078 52.44539063 -106.13671875 50.859375 C-106.13542969 49.87453125 -106.13414062 48.8896875 -106.1328125 47.875 C-106.13168457 46.96492188 -106.13055664 46.05484375 -106.12939453 45.1171875 C-106 43 -106 43 -105 42 C-103.01112506 41.90069467 -101.01869583 41.87200538 -99.02734375 41.87060547 C-97.1103064 41.86587723 -97.1103064 41.86587723 -95.15454102 41.86105347 C-93.74886033 41.86284325 -92.34317995 41.8648942 -90.9375 41.8671875 C-89.50642887 41.86651442 -88.07535785 41.86554436 -86.64428711 41.86428833 C-83.64142776 41.86281156 -80.6385981 41.86496524 -77.63574219 41.86962891 C-73.77847429 41.87532619 -69.92127596 41.87204708 -66.06401062 41.86605644 C-63.10786409 41.86245026 -60.15173417 41.86358968 -57.19558716 41.86618423 C-55.77295931 41.86685335 -54.35032997 41.86602563 -52.92770386 41.86370468 C-50.94268826 41.86117726 -48.95766741 41.86570958 -46.97265625 41.87060547 C-45.27508179 41.87179886 -45.27508179 41.87179886 -43.54321289 41.87301636 C-41 42 -41 42 -40 43 C-39.91314397 44.56172745 -39.89297781 46.12729344 -39.90234375 47.69140625 C-39.90484131 48.54162354 -39.90733887 49.39184082 -39.90991211 50.26782227 C-39.91901611 51.35506592 -39.92812012 52.44230957 -39.9375 53.5625 C-39.958125 57.006875 -39.97875 60.45125 -40 64 C-26.8 64 -13.6 64 0 64 C0 42.88 0 21.76 0 0 Z " fill="#686880" transform="translate(319,319)"/>
<path d="M0 0 C7.26 0 14.52 0 22 0 C22.81395313 14.04069155 23.0901616 27.93479053 23 42 C36.53 42 50.06 42 64 42 C64 63.12 64 84.24 64 106 C57.73 106 51.46 106 45 106 C45.01160156 107.57652344 45.02320313 109.15304687 45.03515625 110.77734375 C45.04453243 112.83072799 45.05363282 114.8841135 45.0625 116.9375 C45.07087891 117.97841797 45.07925781 119.01933594 45.08789062 120.09179688 C45.09111328 121.08115234 45.09433594 122.07050781 45.09765625 123.08984375 C45.10289307 124.00628662 45.10812988 124.92272949 45.11352539 125.86694336 C45 128 45 128 44 129 C42.43827255 129.08685603 40.87270656 129.10702219 39.30859375 129.09765625 C38.45837646 129.09515869 37.60815918 129.09266113 36.73217773 129.09008789 C35.64493408 129.08098389 34.55769043 129.07187988 33.4375 129.0625 C29.993125 129.041875 26.54875 129.02125 23 129 C23 142.53 23 156.06 23 170 C15.08 170 7.16 170 -1 170 C-1.02325199 150.78784546 -1.04104701 131.57569496 -1.05181217 112.36352921 C-1.05694578 103.44091561 -1.06393183 94.51831097 -1.07543945 85.59570312 C-1.08547673 77.80937307 -1.09187471 70.02304951 -1.09408849 62.23671317 C-1.09538041 58.12246378 -1.09836812 54.00823295 -1.10573006 49.89398956 C-1.1344355 33.23114666 -1.04989054 16.63840379 0 0 Z " fill="#66667E" transform="translate(106,342)"/>
<path d="M0 0 C6.6 0 13.2 0 20 0 C20 7.26 20 14.52 20 22 C27.26 22 34.52 22 42 22 C42 78.76 42 135.52 42 194 C34.74 194 27.48 194 20 194 C20 201.26 20 208.52 20 216 C13.4 216 6.8 216 0 216 C0 223.26 0 230.52 0 238 C-7.26 238 -14.52 238 -22 238 C-22 244.6 -22 251.2 -22 258 C-36.52 258 -51.04 258 -66 258 C-66 251.4 -66 244.8 -66 238 C-73.26 238 -80.52 238 -88 238 C-88 230.74 -88 223.48 -88 216 C-80.41 216 -72.82 216 -65 216 C-65 222.93 -65 229.86 -65 237 C-51.14 237 -37.28 237 -23 237 C-23 229.74 -23 222.48 -23 215 C-15.74 215 -8.48 215 -1 215 C-1 207.74 -1 200.48 -1 193 C5.6 193 12.2 193 19 193 C19 144.16 19 95.32 19 45 C12.73 44.67 6.46 44.34 0 44 C0 29.48 0 14.96 0 0 Z " fill="#110800" transform="translate(279,41)"/>
<path d="M0 0 C62.7 0 125.4 0 190 0 C190 13.86 190 27.72 190 42 C176.8 42 163.6 42 150 42 C149.67 35.07 149.34 28.14 149 21 C120.62 21 92.24 21 63 21 C62.67 27.93 62.34 34.86 62 42 C41.54 42 21.08 42 0 42 C0 28.14 0 14.28 0 0 Z " fill="#0F0700" transform="translate(129,341)"/>
<path d="M0 0 C1.91703735 -0.00472824 1.91703735 -0.00472824 3.87280273 -0.009552 C5.27848342 -0.00776222 6.6841638 -0.00571127 8.08984375 -0.00341797 C9.52091488 -0.00409105 10.9519859 -0.00506111 12.38305664 -0.00631714 C15.38591599 -0.00779391 18.38874565 -0.00564023 21.39160156 -0.00097656 C25.24886946 0.00472073 29.10606779 0.00144161 32.96333313 -0.00454903 C35.91947966 -0.00815521 38.87560958 -0.00701579 41.83175659 -0.00442123 C43.25438444 -0.00375212 44.67701378 -0.00457984 46.09963989 -0.00690079 C48.08465549 -0.0094282 50.06967634 -0.00489589 52.0546875 0 C53.75226196 0.00119339 53.75226196 0.00119339 55.48413086 0.00241089 C58.02734375 0.12939453 58.02734375 0.12939453 59.02734375 1.12939453 C59.11419978 2.69112198 59.13436594 4.25668797 59.125 5.82080078 C59.12250244 6.67101807 59.12000488 7.52123535 59.11743164 8.3972168 C59.10832764 9.48446045 59.09922363 10.5717041 59.08984375 11.69189453 C59.06921875 15.13626953 59.04859375 18.58064453 59.02734375 22.12939453 C72.22734375 22.12939453 85.42734375 22.12939453 99.02734375 22.12939453 C99.02734375 15.19939453 99.02734375 8.26939453 99.02734375 1.12939453 C99.35734375 1.12939453 99.68734375 1.12939453 100.02734375 1.12939453 C100.02734375 8.38939453 100.02734375 15.64939453 100.02734375 23.12939453 C121.14734375 23.12939453 142.26734375 23.12939453 164.02734375 23.12939453 C164.02734375 23.45939453 164.02734375 23.78939453 164.02734375 24.12939453 C143.23734375 24.12939453 122.44734375 24.12939453 101.02734375 24.12939453 C101.02734375 31.05939453 101.02734375 37.98939453 101.02734375 45.12939453 C100.02734375 46.12939453 100.02734375 46.12939453 97.98608398 46.24291992 C96.67426147 46.2350647 96.67426147 46.2350647 95.3359375 46.22705078 C94.39169922 46.22382813 93.44746094 46.22060547 92.47460938 46.21728516 C91.48138672 46.20890625 90.48816406 46.20052734 89.46484375 46.19189453 C88.46775391 46.18738281 87.47066406 46.18287109 86.44335938 46.17822266 C83.97129526 46.1663946 81.49934857 46.14991302 79.02734375 46.12939453 C79.03258057 46.69972412 79.03781738 47.27005371 79.04321289 47.85766602 C79.06392596 50.42739776 79.07698565 52.997112 79.08984375 55.56689453 C79.09822266 56.46472656 79.10660156 57.36255859 79.11523438 58.28759766 C79.11845703 59.14160156 79.12167969 59.99560547 79.125 60.87548828 C79.13023682 61.66624756 79.13547363 62.45700684 79.14086914 63.27172852 C79.02734375 65.12939453 79.02734375 65.12939453 78.02734375 66.12939453 C76.61164252 66.21591064 75.19174875 66.23644357 73.7734375 66.22705078 C73.00443115 66.22455322 72.2354248 66.22205566 71.44311523 66.21948242 C70.46028564 66.21037842 69.47745605 66.20127441 68.46484375 66.19189453 C65.35046875 66.17126953 62.23609375 66.15064453 59.02734375 66.12939453 C59.02734375 73.05939453 59.02734375 79.98939453 59.02734375 87.12939453 C43.84734375 87.12939453 28.66734375 87.12939453 13.02734375 87.12939453 C13.00671875 80.22001953 12.98609375 73.31064453 12.96484375 66.19189453 C12.95118774 62.91650757 12.95118774 62.91650757 12.93725586 59.57495117 C12.93433677 57.85481834 12.9317882 56.13468481 12.9296875 54.41455078 C12.92457153 53.51281128 12.91945557 52.61107178 12.91418457 51.68200684 C12.91387493 49.49747708 12.96488505 47.31303123 13.02734375 45.12939453 C14.02734375 44.12939453 14.02734375 44.12939453 15.78004456 44.00914001 C16.54171432 44.01136063 17.30338409 44.01358124 18.08813477 44.01586914 C18.94895157 44.01594467 19.80976837 44.0160202 20.69667053 44.01609802 C21.63208176 44.02125931 22.56749298 44.02642059 23.53125 44.03173828 C24.48426498 44.03315323 25.43727997 44.03456818 26.41917419 44.036026 C29.4760954 44.04164301 32.53294452 44.05419837 35.58984375 44.06689453 C37.65689999 44.07190734 39.72395737 44.07647063 41.79101562 44.08056641 C46.86984208 44.09076895 51.94851181 44.11034097 57.02734375 44.12939453 C57.02734375 37.52939453 57.02734375 30.92939453 57.02734375 24.12939453 C54.17251343 24.13724976 54.17251343 24.13724976 51.26000977 24.14526367 C44.98554851 24.16136124 38.71109213 24.17286678 32.43661594 24.1812067 C28.63082798 24.18643473 24.82506227 24.19353091 21.01928711 24.20483398 C17.34941831 24.21566573 13.67957097 24.22167197 10.00968742 24.22427177 C8.60659383 24.22612551 7.20350146 24.22974513 5.80041695 24.23512459 C3.84164695 24.24233872 1.88285555 24.24280262 -0.07592773 24.24291992 C-1.19289536 24.24514053 -2.30986298 24.24736115 -3.4606781 24.24964905 C-5.97265625 24.12939453 -5.97265625 24.12939453 -6.97265625 23.12939453 C-7.07182195 21.50681909 -7.10345402 19.87999622 -7.10546875 18.25439453 C-7.10675781 17.26955078 -7.10804688 16.28470703 -7.109375 15.27001953 C-7.10550781 14.23361328 -7.10164062 13.19720703 -7.09765625 12.12939453 C-7.10345703 10.57478516 -7.10345703 10.57478516 -7.109375 8.98876953 C-7.10808594 8.00392578 -7.10679687 7.01908203 -7.10546875 6.00439453 C-7.10434082 5.09431641 -7.10321289 4.18423828 -7.10205078 3.24658203 C-6.83348862 -1.14770302 -3.72468146 0.00261844 0 0 Z " fill="#3D3D53" transform="translate(219.97265625,360.87060546875)"/>
<path d="M0 0 C6.6 0 13.2 0 20 0 C20 6.93 20 13.86 20 21 C34.19 21 48.38 21 63 21 C63 34.86 63 48.72 63 63 C56.4 63 49.8 63 43 63 C43 56.07 43 49.14 43 42 C28.81 42 14.62 42 0 42 C0 49.26 0 56.52 0 64 C-7.26 64 -14.52 64 -22 64 C-22 70.6 -22 77.2 -22 84 C-29.26 84 -36.52 84 -44 84 C-44 70.14 -44 56.28 -44 42 C-36.74 42 -29.48 42 -22 42 C-22 34.74 -22 27.48 -22 20 C-14.74 20 -7.48 20 0 20 C0 13.4 0 6.8 0 0 Z " fill="#F6F6F6" transform="translate(214,22)"/>
<path d="M0 0 C13.86 0 27.72 0 42 0 C42.33 6.6 42.66 13.2 43 20 C49.6 20.33 56.2 20.66 63 21 C63 27.27 63 33.54 63 40 C70.26 40 77.52 40 85 40 C85 47.59 85 55.18 85 63 C56.29 63 27.58 63 -2 63 C-2 55.74 -2 48.48 -2 41 C-8.27 41 -14.54 41 -21 41 C-21 40.67 -21 40.34 -21 40 C-14.73 40 -8.46 40 -2 40 C-2 34.39 -2 28.78 -2 23 C-1.67 23 -1.34 23 -1 23 C-1 28.61 -1 34.22 -1 40 C6.26 40 13.52 40 21 40 C21 33.4 21 26.8 21 20 C14.07 20 7.14 20 0 20 C0 13.4 0 6.8 0 0 Z " fill="#18182F" transform="translate(299,449)"/>
<path d="M0 0 C6.6 0 13.2 0 20 0 C20 56.76 20 113.52 20 172 C13.4 172 6.8 172 0 172 C0 115.24 0 58.48 0 0 Z " fill="#0F0700" transform="translate(149,63)"/>
<path d="M0 0 C7.26 0 14.52 0 22 0 C23.06600089 17.02243945 23.12142901 33.99501342 23.06866455 51.04125977 C23.05825858 54.76968811 23.05383073 58.49812369 23.04882812 62.2265625 C23.03824492 69.48439415 23.02127951 76.74219096 23 84 C23.60062256 83.99476318 24.20124512 83.98952637 24.82006836 83.98413086 C27.52586838 83.96341986 30.23165177 83.95035875 32.9375 83.9375 C33.88302734 83.92912109 34.82855469 83.92074219 35.80273438 83.91210938 C37.15141602 83.90727539 37.15141602 83.90727539 38.52734375 83.90234375 C39.35999756 83.89710693 40.19265137 83.89187012 41.05053711 83.88647461 C43 84 43 84 44 85 C44.08685603 86.56172745 44.10702219 88.12729344 44.09765625 89.69140625 C44.09515869 90.54162354 44.09266113 91.39184082 44.09008789 92.26782227 C44.08098389 93.35506592 44.07187988 94.44230957 44.0625 95.5625 C44.041875 99.006875 44.02125 102.45125 44 106 C36.74 106 29.48 106 22 106 C22 113.26 22 120.52 22 128 C14.74 128 7.48 128 0 128 C0 85.76 0 43.52 0 0 Z " fill="#9696AD" transform="translate(106,342)"/>
<path d="M0 0 C0 28.05 0 56.1 0 85 C-6.6 85 -13.2 85 -20 85 C-20 78.4 -20 71.8 -20 65 C-27.26 65 -34.52 65 -42 65 C-42 43.88 -42 22.76 -42 1 C-28.00924984 0.39170651 -14.00396769 0 0 0 Z " fill="#0F0800" transform="translate(105,406)"/>
<path d="M0 0 C13.86 0 27.72 0 42 0 C42 21.12 42 42.24 42 64 C34.74 64 27.48 64 20 64 C20 70.6 20 77.2 20 84 C13.4 84 6.8 84 0 84 C0 56.28 0 28.56 0 0 Z " fill="#F7F5F5" transform="translate(214,86)"/>
<path d="M0 0 C7.26 0 14.52 0 22 0 C22 6.6 22 13.2 22 20 C29.26 20 36.52 20 44 20 C44 34.52 44 49.04 44 64 C36.74 64 29.48 64 22 64 C22 70.6 22 77.2 22 84 C14.74 84 7.48 84 0 84 C0 56.28 0 28.56 0 0 Z " fill="#F6F5F5" transform="translate(170,150)"/>
<path d="M0 0 C7.26 0 14.52 0 22 0 C22 27.72 22 55.44 22 84 C14.74 84 7.48 84 0 84 C0 77.4 0 70.8 0 64 C-7.26 64 -14.52 64 -22 64 C-22 49.48 -22 34.96 -22 20 C-14.74 20 -7.48 20 0 20 C0 13.4 0 6.8 0 0 Z " fill="#DE7070" transform="translate(192,86)"/>
<path d="M0 0 C0.87760986 -0.00315216 1.75521973 -0.00630432 2.65942383 -0.009552 C3.61357178 -0.00752777 4.56771973 -0.00550354 5.55078125 -0.00341797 C6.52362061 -0.00437469 7.49645996 -0.00533142 8.4987793 -0.00631714 C10.56005925 -0.00699905 12.62134133 -0.00514399 14.68261719 -0.00097656 C17.84965813 0.00437153 21.01655725 -0.00092119 24.18359375 -0.00732422 C26.1809899 -0.00666344 28.17838596 -0.00538228 30.17578125 -0.00341797 C31.1299292 -0.0054422 32.08407715 -0.00746643 33.06713867 -0.009552 C34.38355347 -0.00482376 34.38355347 -0.00482376 35.7265625 0 C36.50298096 0.00079559 37.27939941 0.00159119 38.0793457 0.00241089 C39.86328125 0.12939453 39.86328125 0.12939453 40.86328125 1.12939453 C40.95013728 2.69112198 40.97030344 4.25668797 40.9609375 5.82080078 C40.95610352 7.2371582 40.95610352 7.2371582 40.95117188 8.68212891 C40.93860352 10.17196289 40.93860352 10.17196289 40.92578125 11.69189453 C40.92126953 12.68898438 40.91675781 13.68607422 40.91210938 14.71337891 C40.90028148 17.1854094 40.8823454 19.65740925 40.86328125 22.12939453 C47.13328125 22.12939453 53.40328125 22.12939453 59.86328125 22.12939453 C59.86328125 22.45939453 59.86328125 22.78939453 59.86328125 23.12939453 C56.55079938 23.158276 53.23834958 23.17615252 49.92578125 23.19189453 C48.98025391 23.20027344 48.03472656 23.20865234 47.06054688 23.21728516 C45.71186523 23.22211914 45.71186523 23.22211914 44.3359375 23.22705078 C43.08695679 23.23490601 43.08695679 23.23490601 41.81274414 23.24291992 C39.86328125 23.12939453 39.86328125 23.12939453 38.86328125 22.12939453 C38.86328125 15.52939453 38.86328125 8.92939453 38.86328125 2.12939453 C25.00328125 2.12939453 11.14328125 2.12939453 -3.13671875 2.12939453 C-3.13671875 8.72939453 -3.13671875 15.32939453 -3.13671875 22.12939453 C3.79328125 22.12939453 10.72328125 22.12939453 17.86328125 22.12939453 C17.86328125 28.72939453 17.86328125 35.32939453 17.86328125 42.12939453 C10.27328125 42.12939453 2.68328125 42.12939453 -5.13671875 42.12939453 C-5.13671875 49.71939453 -5.13671875 57.30939453 -5.13671875 65.12939453 C-18.66671875 65.12939453 -32.19671875 65.12939453 -46.13671875 65.12939453 C-46.13671875 50.93939453 -46.13671875 36.74939453 -46.13671875 22.12939453 C-32.60671875 22.12939453 -19.07671875 22.12939453 -5.13671875 22.12939453 C-5.17630344 15.26326646 -5.17630344 15.26326646 -5.22680664 8.3972168 C-5.2293042 7.54699951 -5.23180176 6.69678223 -5.234375 5.82080078 C-5.23961182 4.94625244 -5.24484863 4.0717041 -5.25024414 3.1706543 C-5.04366881 -0.54370348 -3.25970708 0.00334021 0 0 Z " fill="#17172F" transform="translate(302.13671875,446.87060546875)"/>
<path d="M0 0 C7.26 0 14.52 0 22 0 C22 29.04 22 58.08 22 88 C14.74 88 7.48 88 0 88 C0 58.96 0 29.92 0 0 Z " fill="#0F0700" transform="translate(41,319)"/>
<path d="M0 0 C14.85 0 29.7 0 45 0 C45 13.86 45 27.72 45 42 C30.15 42 15.3 42 0 42 C0 28.14 0 14.28 0 0 Z " fill="#66667E" transform="translate(233,406)"/>
<path d="M0 0 C7.59 0 15.18 0 23 0 C23 7.59 23 15.18 23 23 C15.74 23 8.48 23 1 23 C1 29.27 1 35.54 1 42 C-20.12 42 -41.24 42 -63 42 C-63 35.4 -63 28.8 -63 22 C-42.21 22 -21.42 22 0 22 C0 14.74 0 7.48 0 0 Z " fill="#9898B0" transform="translate(383,320)"/>
<path d="M0 0 C14.52 0 29.04 0 44 0 C44 6.93 44 13.86 44 21 C51.26 21 58.52 21 66 21 C66 27.6 66 34.2 66 41 C51.48 41 36.96 41 22 41 C21.505 31.595 21.505 31.595 21 22 C14.07 21.67 7.14 21.34 0 21 C0 14.07 0 7.14 0 0 Z " fill="#0F0700" transform="translate(213,0)"/>
<path d="M0 0 C13.53 0 27.06 0 41 0 C41 21.12 41 42.24 41 64 C34.73 64 28.46 64 22 64 C21.25359217 49.97819575 20.89824166 36.04265159 21 22 C14.07 22 7.14 22 0 22 C0 14.74 0 7.48 0 0 Z " fill="#3F3F57" transform="translate(129,384)"/>
<path d="M0 0 C27.72 0 55.44 0 84 0 C84 6.6 84 13.2 84 20 C56.28 20 28.56 20 0 20 C0 13.4 0 6.8 0 0 Z " fill="#0F0700" transform="translate(193,385)"/>
<path d="M0 0 C7.59 0 15.18 0 23 0 C24 1 24 1 24.12025452 3.54994202 C24.1169236 5.25204079 24.1169236 5.25204079 24.11352539 6.98852539 C24.11344986 8.26977798 24.11337433 9.55103058 24.11329651 10.87110901 C24.10818909 12.27995848 24.10297309 13.68880756 24.09765625 15.09765625 C24.09579202 16.53112234 24.09436814 17.96458907 24.09336853 19.39805603 C24.08954372 23.17759957 24.07971377 26.9571049 24.06866455 30.7366333 C24.05844963 34.59069298 24.05387074 38.44475882 24.04882812 42.29882812 C24.03809145 49.86590488 24.02049497 57.43294223 24 65 C16.08 65 8.16 65 0 65 C0 43.55 0 22.1 0 0 Z " fill="#9191A6" transform="translate(63,319)"/>
<path d="M0 0 C6.93 0 13.86 0 21 0 C22 1 22 1 22.12025452 3.51197815 C22.1169236 5.18742958 22.1169236 5.18742958 22.11352539 6.89672852 C22.11344986 8.15796036 22.11337433 9.4191922 22.11329651 10.71864319 C22.1081891 12.10539794 22.10297309 13.49215229 22.09765625 14.87890625 C22.09579201 16.28995209 22.09436814 17.70099857 22.09336853 19.11204529 C22.08954379 22.83240535 22.0797139 26.5527266 22.06866455 30.27307129 C22.05844948 34.06680781 22.05387071 37.86055058 22.04882812 41.65429688 C22.03809158 49.10288436 22.02049515 56.5514318 22 64 C14.74 64 7.48 64 0 64 C0 42.88 0 21.76 0 0 Z " fill="#F4F4F5" transform="translate(106,362)"/>
<path d="M0 0 C6.6 0 13.2 0 20 0 C20 21.78 20 43.56 20 66 C13.4 66 6.8 66 0 66 C0 44.22 0 22.44 0 0 Z " fill="#DC6C6C" transform="translate(278,105)"/>
<path d="M0 0 C13.2 0 26.4 0 40 0 C40 6.6 40 13.2 40 20 C33.07 20 26.14 20 19 20 C19 27.26 19 34.52 19 42 C12.73 42 6.46 42 0 42 C0 48.93 0 55.86 0 63 C-0.33 63 -0.66 63 -1 63 C-1 49.14 -1 35.28 -1 21 C-15.52 21 -30.04 21 -45 21 C-45 20.67 -45 20.34 -45 20 C-30.15 20 -15.3 20 0 20 C0 13.4 0 6.8 0 0 Z " fill="#404057" transform="translate(279,385)"/>
<path d="M0 0 C20.79 0 41.58 0 63 0 C62.67 6.93 62.34 13.86 62 21 C41.54 21 21.08 21 0 21 C0 14.07 0 7.14 0 0 Z " fill="#686880" transform="translate(321,362)"/>
<path d="M0 0 C0 20.79 0 41.58 0 63 C-6.6 63 -13.2 63 -20 63 C-20.85453708 49.07844714 -21.12509486 35.25698201 -21.0625 21.3125 C-21.0574664 19.32747511 -21.05290684 17.34244896 -21.04882812 15.35742188 C-21.03798953 10.57158249 -21.02083154 5.78580589 -21 1 C-14.73191505 -2.13404247 -7.00793201 0 0 0 Z " fill="#B02929" transform="translate(213,106)"/>
<path d="M0 0 C0.33 0 0.66 0 1 0 C1 6.27 1 12.54 1 19 C15.52 19 30.04 19 45 19 C45.02290475 25.39042521 45.04283313 31.78070909 45.05493164 38.17114258 C45.05997308 40.34692873 45.06680607 42.52271147 45.07543945 44.69848633 C45.08751338 47.81853067 45.09323005 50.93853038 45.09765625 54.05859375 C45.10281754 55.03775253 45.10797882 56.01691132 45.11329651 57.02574158 C45.11337204 57.92659988 45.11344757 58.82745819 45.11352539 59.75561523 C45.115746 60.55281479 45.11796661 61.35001434 45.12025452 62.17137146 C45 64 45 64 44 65 C37.07 65 30.14 65 23 65 C23 85.79 23 106.58 23 128 C22.67 128 22.34 128 22 128 C22 106.88 22 85.76 22 64 C8.14 64 -5.72 64 -20 64 C-20 56.74 -20 49.48 -20 42 C-5.81 42 8.38 42 23 42 C23 48.93 23 55.86 23 63 C29.6 63 36.2 63 43 63 C43 49.14 43 35.28 43 21 C28.81 21 14.62 21 0 21 C0 14.07 0 7.14 0 0 Z " fill="#C8A4A4" transform="translate(234,22)"/>
<path d="M0 0 C13.53 0 27.06 0 41 0 C41 13.86 41 27.72 41 42 C34.73 42 28.46 42 22 42 C22 34.74 22 27.48 22 20 C14.74 20 7.48 20 0 20 C0 13.4 0 6.8 0 0 Z " fill="#3F3F56" transform="translate(192,406)"/>
<path d="M0 0 C14.52 0 29.04 0 44 0 C44 7.26 44 14.52 44 22 C29.48 22 14.96 22 0 22 C0 14.74 0 7.48 0 0 Z " fill="#0F0700" transform="translate(63,297)"/>
<path d="M0 0 C13.86 0 27.72 0 42 0 C42 7.59 42 15.18 42 23 C28.14 23 14.28 23 0 23 C0 15.41 0 7.82 0 0 Z " fill="#3E3E55" transform="translate(342,489)"/>
<path d="M0 0 C14.19 0 28.38 0 43 0 C43 7.26 43 14.52 43 22 C28.81 22 14.62 22 0 22 C0 14.74 0 7.48 0 0 Z " fill="#65657C" transform="translate(213,362)"/>
<path d="M0 0 C14.85 0 29.7 0 45 0 C45 6.6 45 13.2 45 20 C30.48 20 15.96 20 1 20 C0.67 13.4 0.34 6.8 0 0 Z " fill="#B02828" transform="translate(234,21)"/>
<path d="M0 0 C14.52 0 29.04 0 44 0 C44 6.6 44 13.2 44 20 C29.48 20 14.96 20 0 20 C0 13.4 0 6.8 0 0 Z " fill="#9595AD" transform="translate(234,406)"/>
<path d="M0 0 C6.27 0 12.54 0 19 0 C19 14.52 19 29.04 19 44 C12.73 44 6.46 44 0 44 C0 29.48 0 14.96 0 0 Z " fill="#17172F" transform="translate(86,426)"/>
<path d="M0 0 C6.6 0.33 13.2 0.66 20 1 C20 14.53 20 28.06 20 42 C13.4 42 6.8 42 0 42 C0 28.14 0 14.28 0 0 Z " fill="#17172F" transform="translate(171,384)"/>
<path d="M0 0 C7.26 0 14.52 0 22 0 C22 7.26 22 14.52 22 22 C1.21 22 -19.58 22 -41 22 C-41 28.6 -41 35.2 -41 42 C-41.33 42 -41.66 42 -42 42 C-42 35.07 -42 28.14 -42 21 C-28.14 21 -14.28 21 0 21 C0 14.07 0 7.14 0 0 Z " fill="#64647B" transform="translate(361,320)"/>
<path d="M0 0 C7.26 0 14.52 0 22 0 C22 27.72 22 55.44 22 84 C14.74 84 7.48 84 0 84 C0 77.4 0 70.8 0 64 C0.33 64 0.66 64 1 64 C1 70.27 1 76.54 1 83 C7.6 83 14.2 83 21 83 C21 62.21 21 41.42 21 20 C10.605 20.495 10.605 20.495 0 21 C0 14.07 0 7.14 0 0 Z " fill="#DB7979" transform="translate(192,86)"/>
<path d="M0 0 C3.609375 -0.020625 7.21875 -0.04125 10.9375 -0.0625 C12.07695068 -0.071604 13.21640137 -0.08070801 14.39038086 -0.09008789 C15.28120361 -0.09258545 16.17202637 -0.09508301 17.08984375 -0.09765625 C18.46450806 -0.10551147 18.46450806 -0.10551147 19.86694336 -0.11352539 C22 0 22 0 23 1 C23.08700342 2.63472882 23.10701063 4.27314055 23.09765625 5.91015625 C23.09515869 6.800979 23.09266113 7.69180176 23.09008789 8.60961914 C23.08098389 9.74906982 23.07187988 10.88852051 23.0625 12.0625 C23.041875 15.671875 23.02125 19.28125 23 23 C15.41 23 7.82 23 0 23 C0 15.41 0 7.82 0 0 Z " fill="#181830" transform="translate(384,489)"/>
<path d="M0 0 C0.99 0.495 0.99 0.495 2 1 C2 7.6 2 14.2 2 21 C8.6 21 15.2 21 22 21 C22 14.4 22 7.8 22 1 C24.70716242 0.09761253 26.23776768 -0.11851302 29.01171875 -0.09765625 C30.03591919 -0.09390991 30.03591919 -0.09390991 31.08081055 -0.09008789 C31.94101807 -0.08098389 32.80122559 -0.07187988 33.6875 -0.0625 C36.430625 -0.041875 39.17375 -0.02125 42 0 C42 7.26 42 14.52 42 22 C27.95897251 22.87076139 14.07028953 23.08527448 0 23 C0 15.41 0 7.82 0 0 Z " fill="#171730" transform="translate(63,384)"/>
<path d="M0 0 C7.92 0 15.84 0 24 0 C24 6.93 24 13.86 24 21 C16.08 21 8.16 21 0 21 C0 14.07 0 7.14 0 0 Z " fill="#0F0700" transform="translate(105,491)"/>
<path d="M0 0 C7.26 0 14.52 0 22 0 C22 7.26 22 14.52 22 22 C14.74 22 7.48 22 0 22 C0 14.74 0 7.48 0 0 Z " fill="#3E3E56" transform="translate(298,490)"/>
<path d="M0 0 C7.26 0 14.52 0 22 0 C22 7.26 22 14.52 22 22 C14.74 22 7.48 22 0 22 C0 14.74 0 7.48 0 0 Z " fill="#F3F3F3" transform="translate(384,320)"/>
<path d="M0 0 C7.26 0 14.52 0 22 0 C22 7.26 22 14.52 22 22 C14.74 22 7.48 22 0 22 C0 14.74 0 7.48 0 0 Z " fill="#F3F3F3" transform="translate(64,320)"/>
<path d="M0 0 C7.26 0 14.52 0 22 0 C22 7.26 22 14.52 22 22 C14.74 22 7.48 22 0 22 C0 14.74 0 7.48 0 0 Z " fill="#0F0700" transform="translate(319,319)"/>
<path d="M0 0 C7.26 0 14.52 0 22 0 C22 7.26 22 14.52 22 22 C14.74 22 7.48 22 0 22 C0 14.74 0 7.48 0 0 Z " fill="#0F0700" transform="translate(107,319)"/>
<path d="M0 0 C7.26 0 14.52 0 22 0 C22 7.26 22 14.52 22 22 C14.74 22 7.48 22 0 22 C0 14.74 0 7.48 0 0 Z " fill="#0E0700" transform="translate(169,235)"/>
<path d="M0 0 C7.26 0 14.52 0 22 0 C22 7.26 22 14.52 22 22 C14.74 22 7.48 22 0 22 C0 14.74 0 7.48 0 0 Z " fill="#0E0700" transform="translate(169,41)"/>
<path d="M0 0 C14.19 0 28.38 0 43 0 C43 0.33 43 0.66 43 1 C35.41 1 27.82 1 20 1 C20 7.93 20 14.86 20 22 C13.4 22 6.8 22 0 22 C0 14.74 0 7.48 0 0 Z " fill="#3C3B51" transform="translate(341,319)"/>
<path d="M0 0 C7.26 0 14.52 0 22 0 C21.67 6.93 21.34 13.86 21 21 C10.605 21.495 10.605 21.495 0 22 C0 14.74 0 7.48 0 0 Z " fill="#696981" transform="translate(128,448)"/>
<path d="M0 0 C6.93 0 13.86 0 21 0 C21.81309707 14.02592445 22.13096471 27.95252416 22 42 C21.67 42 21.34 42 21 42 C20.67 35.07 20.34 28.14 20 21 C13.4 20.67 6.8 20.34 0 20 C0 13.4 0 6.8 0 0 Z " fill="#67677F" transform="translate(129,406)"/>
<path d="M0 0 C6.6 0 13.2 0 20 0 C20 7.26 20 14.52 20 22 C13.4 22 6.8 22 0 22 C0 14.74 0 7.48 0 0 Z " fill="#66667E" transform="translate(342,490)"/>
<path d="M0 0 C6.6 0 13.2 0 20 0 C20 7.26 20 14.52 20 22 C13.4 22 6.8 22 0 22 C0 14.74 0 7.48 0 0 Z " fill="#0F0700" transform="translate(321,490)"/>
<path d="M0 0 C7.26 0 14.52 0 22 0 C22 6.6 22 13.2 22 20 C14.74 20 7.48 20 0 20 C0 13.4 0 6.8 0 0 Z " fill="#0E0700" transform="translate(257,21)"/>
<path d="M0 0 C7.26 0 14.52 0 22 0 C22 6.6 22 13.2 22 20 C14.74 20 7.48 20 0 20 C0 13.4 0 6.8 0 0 Z " fill="#0E0700" transform="translate(191,21)"/>
<path d="M0 0 C6.93 0 13.86 0 21 0 C21 6.6 21 13.2 21 20 C14.07 20 7.14 20 0 20 C0 13.4 0 6.8 0 0 Z " fill="#17172F" transform="translate(256,385)"/>
<path d="M0 0 C6.93 0 13.86 0 21 0 C21 6.6 21 13.2 21 20 C14.07 20 7.14 20 0 20 C0 13.4 0 6.8 0 0 Z " fill="#B02929" transform="translate(234,65)"/>
<path d="M0 0 C6.27 0 12.54 0 19 0 C19 7.26 19 14.52 19 22 C12.73 22 6.46 22 0 22 C0 14.74 0 7.48 0 0 Z " fill="#100802" transform="translate(278,490)"/>
<path d="M0 0 C3.47921735 -0.02683201 6.95823039 -0.0467567 10.4375 -0.0625 C11.92733398 -0.07506836 11.92733398 -0.07506836 13.44726562 -0.08789062 C14.39150391 -0.09111328 15.33574219 -0.09433594 16.30859375 -0.09765625 C17.62041626 -0.10551147 17.62041626 -0.10551147 18.95874023 -0.11352539 C21 0 21 0 22 1 C22.08631874 2.34267413 22.10706473 3.68974322 22.09765625 5.03515625 C22.09515869 5.76355713 22.09266113 6.49195801 22.09008789 7.24243164 C22.08098389 8.1730542 22.07187988 9.10367676 22.0625 10.0625 C22.041875 13.011875 22.02125 15.96125 22 19 C14.74 19 7.48 19 0 19 C0 12.73 0 6.46 0 0 Z " fill="#100802" transform="translate(298,470)"/>
<path d="M0 0 C6.6 0 13.2 0 20 0 C20 6.6 20 13.2 20 20 C13.4 20 6.8 20 0 20 C0 13.4 0 6.8 0 0 Z " fill="#100802" transform="translate(171,406)"/>
<path d="M0 0 C0.33 0 0.66 0 1 0 C1 6.93 1 13.86 1 21 C14.2 21 27.4 21 41 21 C41 14.07 41 7.14 41 0 C41.33 0 41.66 0 42 0 C42 7.26 42 14.52 42 22 C63.12 22 84.24 22 106 22 C106 22.33 106 22.66 106 23 C85.21 23 64.42 23 43 23 C43 29.93 43 36.86 43 44 C42 45 42 45 39.95874023 45.11352539 C38.64691772 45.10567017 38.64691772 45.10567017 37.30859375 45.09765625 C36.36435547 45.09443359 35.42011719 45.09121094 34.44726562 45.08789062 C33.45404297 45.07951172 32.46082031 45.07113281 31.4375 45.0625 C30.44041016 45.05798828 29.44332031 45.05347656 28.41601562 45.04882812 C25.94398513 45.03700023 23.47198528 45.01906415 21 45 C21 51.27 21 57.54 21 64 C20.67 64 20.34 64 20 64 C20 57.07 20 50.14 20 43 C26.93 43 33.86 43 41 43 C41 36.4 41 29.8 41 23 C27.8 23 14.6 23 1 23 C1 29.6 1 36.2 1 43 C0.34 43 -0.32 43 -1 43 C-1 36.4 -1 29.8 -1 23 C-21.79 23 -42.58 23 -64 23 C-64 22.67 -64 22.34 -64 22 C-42.88 22 -21.76 22 0 22 C0 14.74 0 7.48 0 0 Z " fill="#31303F" transform="translate(278,362)"/>
<path d="M0 0 C6.27 0 12.54 0 19 0 C19 6.6 19 13.2 19 20 C12.73 20 6.46 20 0 20 C0 13.4 0 6.8 0 0 Z " fill="#DF6E6E" transform="translate(215,65)"/>
<path d="M0 0 C0.33 0 0.66 0 1 0 C1 42.24 1 84.48 1 128 C8.26 128 15.52 128 23 128 C22.96041741 121.4629715 22.96041741 121.4629715 22.90991211 114.92602539 C22.90741455 114.11641357 22.90491699 113.30680176 22.90234375 112.47265625 C22.89448853 111.22367554 22.89448853 111.22367554 22.88647461 109.94946289 C23 108 23 108 24 107 C25.4887186 106.91330568 26.981445 106.89296506 28.47265625 106.90234375 C29.37177734 106.90556641 30.27089844 106.90878906 31.19726562 106.91210938 C32.61555664 106.92467773 32.61555664 106.92467773 34.0625 106.9375 C35.01189453 106.94201172 35.96128906 106.94652344 36.93945312 106.95117188 C39.29303065 106.9629989 41.64648477 106.97947975 44 107 C43.98428955 106.15236084 43.98428955 106.15236084 43.96826172 105.28759766 C43.92675212 102.73344347 43.9006904 100.17936018 43.875 97.625 C43.85824219 96.73554688 43.84148437 95.84609375 43.82421875 94.9296875 C43.81455078 93.65351563 43.81455078 93.65351563 43.8046875 92.3515625 C43.78897705 91.17327881 43.78897705 91.17327881 43.77294922 89.97119141 C44 88 44 88 46 86 C46.02887512 89.64581687 46.04675585 93.29160463 46.0625 96.9375 C46.07087891 97.97841797 46.07925781 99.01933594 46.08789062 100.09179688 C46.09111328 101.08115234 46.09433594 102.07050781 46.09765625 103.08984375 C46.10289307 104.00628662 46.10812988 104.92272949 46.11352539 105.86694336 C46 108 46 108 45 109 C43.43827255 109.08685603 41.87270656 109.10702219 40.30859375 109.09765625 C39.36435547 109.09443359 38.42011719 109.09121094 37.44726562 109.08789062 C36.45404297 109.07951172 35.46082031 109.07113281 34.4375 109.0625 C33.44041016 109.05798828 32.44332031 109.05347656 31.41601562 109.04882812 C28.94398513 109.03700023 26.47198528 109.01906415 24 109 C24 115.6 24 122.2 24 129 C16.08 129 8.16 129 0 129 C0 86.43 0 43.86 0 0 Z " fill="#575664" transform="translate(105,362)"/>
<path d="M0 0 C0.87760986 -0.00315216 1.75521973 -0.00630432 2.65942383 -0.009552 C3.61357178 -0.00752777 4.56771973 -0.00550354 5.55078125 -0.00341797 C6.52362061 -0.00437469 7.49645996 -0.00533142 8.4987793 -0.00631714 C10.56005925 -0.00699905 12.62134133 -0.00514399 14.68261719 -0.00097656 C17.84965813 0.00437153 21.01655725 -0.00092119 24.18359375 -0.00732422 C26.1809899 -0.00666344 28.17838596 -0.00538228 30.17578125 -0.00341797 C31.1299292 -0.0054422 32.08407715 -0.00746643 33.06713867 -0.009552 C34.38355347 -0.00482376 34.38355347 -0.00482376 35.7265625 0 C36.50298096 0.00079559 37.27939941 0.00159119 38.0793457 0.00241089 C39.86328125 0.12939453 39.86328125 0.12939453 40.86328125 1.12939453 C40.95013728 2.69112198 40.97030344 4.25668797 40.9609375 5.82080078 C40.95610352 7.2371582 40.95610352 7.2371582 40.95117188 8.68212891 C40.93860352 10.17196289 40.93860352 10.17196289 40.92578125 11.69189453 C40.92126953 12.68898438 40.91675781 13.68607422 40.91210938 14.71337891 C40.90028148 17.1854094 40.8823454 19.65740925 40.86328125 22.12939453 C47.13328125 22.12939453 53.40328125 22.12939453 59.86328125 22.12939453 C59.86328125 22.45939453 59.86328125 22.78939453 59.86328125 23.12939453 C56.55079938 23.158276 53.23834958 23.17615252 49.92578125 23.19189453 C48.98025391 23.20027344 48.03472656 23.20865234 47.06054688 23.21728516 C45.71186523 23.22211914 45.71186523 23.22211914 44.3359375 23.22705078 C43.08695679 23.23490601 43.08695679 23.23490601 41.81274414 23.24291992 C39.86328125 23.12939453 39.86328125 23.12939453 38.86328125 22.12939453 C38.86328125 15.52939453 38.86328125 8.92939453 38.86328125 2.12939453 C25.00328125 2.12939453 11.14328125 2.12939453 -3.13671875 2.12939453 C-3.13671875 8.72939453 -3.13671875 15.32939453 -3.13671875 22.12939453 C3.79328125 22.12939453 10.72328125 22.12939453 17.86328125 22.12939453 C17.53328125 22.78939453 17.20328125 23.44939453 16.86328125 24.12939453 C-3.92671875 23.79939453 -24.71671875 23.46939453 -46.13671875 23.12939453 C-46.13671875 22.79939453 -46.13671875 22.46939453 -46.13671875 22.12939453 C-32.60671875 22.12939453 -19.07671875 22.12939453 -5.13671875 22.12939453 C-5.17630344 15.26326646 -5.17630344 15.26326646 -5.22680664 8.3972168 C-5.2293042 7.54699951 -5.23180176 6.69678223 -5.234375 5.82080078 C-5.23961182 4.94625244 -5.24484863 4.0717041 -5.25024414 3.1706543 C-5.04366881 -0.54370348 -3.25970708 0.00334021 0 0 Z " fill="#13101D" transform="translate(302.13671875,446.87060546875)"/>
<path d="M0 0 C7.59 0 15.18 0 23 0 C23.02290553 6.10559655 23.04283367 12.21104516 23.05493164 18.31665039 C23.05997288 20.39543156 23.06680574 22.47420916 23.07543945 24.55297852 C23.08751422 27.53402586 23.09323024 30.51502649 23.09765625 33.49609375 C23.10281754 34.43150497 23.10797882 35.3669162 23.11329651 36.33067322 C23.11337204 37.19149002 23.11344757 38.05230682 23.11352539 38.93920898 C23.115746 39.70087875 23.11796661 40.46254852 23.12025452 41.24729919 C23 43 23 43 22 44 C20.43827255 44.08685603 18.87270656 44.10702219 17.30859375 44.09765625 C16.45837646 44.09515869 15.60815918 44.09266113 14.73217773 44.09008789 C13.64493408 44.08098389 12.55769043 44.07187988 11.4375 44.0625 C7.993125 44.041875 4.54875 44.02125 1 44 C1 50.93 1 57.86 1 65 C-20.45 65 -41.9 65 -64 65 C-64 57.74 -64 50.48 -64 43 C-63.67 43 -63.34 43 -63 43 C-63 49.93 -63 56.86 -63 64 C-42.54 64 -22.08 64 -1 64 C-1 57.4 -1 50.8 -1 44 C1 42 1 42 3.06298828 41.77294922 C4.30411377 41.78865967 4.30411377 41.78865967 5.5703125 41.8046875 C6.46621094 41.81113281 7.36210937 41.81757813 8.28515625 41.82421875 C9.22230469 41.84097656 10.15945313 41.85773438 11.125 41.875 C12.06988281 41.88402344 13.01476562 41.89304687 13.98828125 41.90234375 C16.32577292 41.92595478 18.66276123 41.95888484 21 42 C20.98839844 40.96746094 20.97679687 39.93492187 20.96484375 38.87109375 C20.8709594 26.21724392 21.3908362 13.64014886 22 1 C14.74 1 7.48 1 0 1 C0 0.67 0 0.34 0 0 Z " fill="#595967" transform="translate(384,319)"/>
<path d="M0 0 C0.91644287 0.00523682 1.83288574 0.01047363 2.77709961 0.01586914 C3.76645508 0.0190918 4.75581055 0.02231445 5.77514648 0.02563477 C6.81606445 0.03401367 7.85698242 0.04239258 8.92944336 0.05102539 C10.49662109 0.05779297 10.49662109 0.05779297 12.09545898 0.06469727 C14.68600996 0.07652627 17.27644895 0.0930085 19.86694336 0.11352539 C19.53694336 0.77352539 19.20694336 1.43352539 18.86694336 2.11352539 C12.26694336 2.11352539 5.66694336 2.11352539 -1.13305664 2.11352539 C-1.13305664 8.71352539 -1.13305664 15.31352539 -1.13305664 22.11352539 C5.46694336 22.11352539 12.06694336 22.11352539 18.86694336 22.11352539 C19.36194336 23.10352539 19.36194336 23.10352539 19.86694336 24.11352539 C12.93694336 24.11352539 6.00694336 24.11352539 -1.13305664 24.11352539 C-1.13305664 30.71352539 -1.13305664 37.31352539 -1.13305664 44.11352539 C-1.46305664 44.11352539 -1.79305664 44.11352539 -2.13305664 44.11352539 C-2.13305664 37.18352539 -2.13305664 30.25352539 -2.13305664 23.11352539 C-22.92305664 23.11352539 -43.71305664 23.11352539 -65.13305664 23.11352539 C-65.13305664 22.78352539 -65.13305664 22.45352539 -65.13305664 22.11352539 C-44.67305664 22.11352539 -24.21305664 22.11352539 -3.13305664 22.11352539 C-3.13305664 15.18352539 -3.13305664 8.25352539 -3.13305664 1.11352539 C-2.13305664 0.11352539 -2.13305664 0.11352539 0 0 Z " fill="#16131F" transform="translate(194.133056640625,360.886474609375)"/>
<path d="M0 0 C0.33 0 0.66 0 1 0 C1 7.26 1 14.52 1 22 C8.26 22 15.52 22 23 22 C23 22.33 23 22.66 23 23 C15.74 23 8.48 23 1 23 C1 29.27 1 35.54 1 42 C-20.12 42 -41.24 42 -63 42 C-63 35.4 -63 28.8 -63 22 C-42.21 22 -21.42 22 0 22 C0 14.74 0 7.48 0 0 Z M-62 23 C-62 28.94 -62 34.88 -62 41 C-41.54 41 -21.08 41 0 41 C0 35.06 0 29.12 0 23 C-20.46 23 -40.92 23 -62 23 Z " fill="#8E8EA2" transform="translate(383,320)"/>
<path d="M0 0 C7.59 0 15.18 0 23 0 C23 6.6 23 13.2 23 20 C15.74 20 8.48 20 1 20 C0.67 13.4 0.34 6.8 0 0 Z M3 2 C3 7.28 3 12.56 3 18 C8.94 18 14.88 18 21 18 C21 12.72 21 7.44 21 2 C15.06 2 9.12 2 3 2 Z " fill="#931E1D" transform="translate(234,21)"/>
<path d="M0 0 C3.14581423 -0.02888514 6.29159469 -0.04675923 9.4375 -0.0625 C10.33533203 -0.07087891 11.23316406 -0.07925781 12.15820312 -0.08789062 C13.01220703 -0.09111328 13.86621094 -0.09433594 14.74609375 -0.09765625 C15.93223267 -0.10551147 15.93223267 -0.10551147 17.14233398 -0.11352539 C19 0 19 0 20 1 C20.09509559 3.61688441 20.12556 6.207289 20.11352539 8.82446289 C20.11367142 9.64390884 20.11381744 10.4633548 20.1139679 11.30763245 C20.11326852 14.02933353 20.10547501 16.75096705 20.09765625 19.47265625 C20.09579216 21.35452741 20.09436821 23.23639906 20.09336853 25.11827087 C20.08954267 30.08148529 20.07971181 35.04467064 20.06866455 40.00787354 C20.0584519 45.06839606 20.05387122 50.12892327 20.04882812 55.18945312 C20.0380896 65.12631488 20.02101236 75.06315503 20 85 C19.67 85 19.34 85 19 85 C18.67 57.61 18.34 30.22 18 2 C12.06 2 6.12 2 0 2 C0 1.34 0 0.68 0 0 Z " fill="#7B2927" transform="translate(279,85)"/>
<path d="M0 0 C0.33 0 0.66 0 1 0 C1.33 20.46 1.66 40.92 2 62 C-4.27 62 -10.54 62 -17 62 C-17 55.73 -17 49.46 -17 43 C-16.67 43 -16.34 43 -16 43 C-16 48.61 -16 54.22 -16 60 C-10.72 60 -5.44 60 0 60 C0 40.2 0 20.4 0 0 Z " fill="#AF1D1D" transform="translate(211,107)"/>
<path d="M0 0 C6.6 0 13.2 0 20 0 C20 6.6 20 13.2 20 20 C13.4 20 6.8 20 0 20 C0 19.34 0 18.68 0 18 C5.94 18 11.88 18 18 18 C18 12.72 18 7.44 18 2 C12.06 2 6.12 2 0 2 C0 1.34 0 0.68 0 0 Z " fill="#AF2121" transform="translate(235,65)"/>
<path d="M0 0 C0.99 0.495 0.99 0.495 2 1 C2 7.6 2 14.2 2 21 C8.6 21 15.2 21 22 21 C22 14.4 22 7.8 22 1 C22.33 1 22.66 1 23 1 C23 8.26 23 15.52 23 23 C15.41 23 7.82 23 0 23 C0 15.41 0 7.82 0 0 Z " fill="#2F2E3F" transform="translate(63,384)"/>
<path d="M0 0 C0.33 0 0.66 0 1 0 C1.02887814 3.47914941 1.04675687 6.95826831 1.0625 10.4375 C1.07087891 11.43072266 1.07925781 12.42394531 1.08789062 13.44726562 C1.09272461 14.86362305 1.09272461 14.86362305 1.09765625 16.30859375 C1.10551147 17.62041626 1.10551147 17.62041626 1.11352539 18.95874023 C1 21 1 21 0 22 C-1.56172745 22.08685603 -3.12729344 22.10702219 -4.69140625 22.09765625 C-5.63564453 22.09443359 -6.57988281 22.09121094 -7.55273438 22.08789062 C-9.04256836 22.07532227 -9.04256836 22.07532227 -10.5625 22.0625 C-11.55958984 22.05798828 -12.55667969 22.05347656 -13.58398438 22.04882812 C-16.05601487 22.03700023 -18.52801472 22.01906415 -21 22 C-21 28.27 -21 34.54 -21 41 C-21.33 41 -21.66 41 -22 41 C-22 34.07 -22 27.14 -22 20 C-15.07 20 -8.14 20 -1 20 C-1.03958027 13.79207086 -1.03958027 13.79207086 -1.09008789 7.58422852 C-1.09258545 6.81522217 -1.09508301 6.04621582 -1.09765625 5.25390625 C-1.10551147 4.06776733 -1.10551147 4.06776733 -1.11352539 2.85766602 C-1 1 -1 1 0 0 Z " fill="#2B2938" transform="translate(320,385)"/>
<path d="M0 0 C3.64581687 -0.02887512 7.29160463 -0.04675585 10.9375 -0.0625 C12.49887695 -0.07506836 12.49887695 -0.07506836 14.09179688 -0.08789062 C15.57583008 -0.09272461 15.57583008 -0.09272461 17.08984375 -0.09765625 C18.46450806 -0.10551147 18.46450806 -0.10551147 19.86694336 -0.11352539 C22 0 22 0 23 1 C23.08700342 2.63472882 23.10701063 4.27314055 23.09765625 5.91015625 C23.09443359 6.89951172 23.09121094 7.88886719 23.08789062 8.90820312 C23.07951172 9.94912109 23.07113281 10.99003906 23.0625 12.0625 C23.05798828 13.10728516 23.05347656 14.15207031 23.04882812 15.22851562 C23.03699913 17.8190666 23.02051689 20.40950559 23 23 C22.34 23 21.68 23 21 23 C21 16.07 21 9.14 21 2 C15.21111367 2.07895506 15.21111367 2.07895506 9.42260742 2.18017578 C8.69920166 2.1851709 7.9757959 2.19016602 7.23046875 2.1953125 C6.12288208 2.21102295 6.12288208 2.21102295 4.99291992 2.22705078 C3 2 3 2 0 0 Z " fill="#13101E" transform="translate(384,489)"/>
<path d="M0 0 C6.93 0.33 13.86 0.66 21 1 C21 1.33 21 1.66 21 2 C14.73 2 8.46 2 2 2 C2 22.13 2 42.26 2 63 C1.67 63 1.34 63 1 63 C0.67 42.21 0.34 21.42 0 0 Z " fill="#AF1B1B" transform="translate(257,87)"/>
<path d="M0 0 C6.93 0 13.86 0 21 0 C21 7.26 21 14.52 21 22 C20.34 22 19.68 22 19 22 C19 15.4 19 8.8 19 2 C13.06 2 7.12 2 1 2 C0.67 1.34 0.34 0.68 0 0 Z " fill="#2D2B3B" transform="translate(86,319)"/>
</svg>
